<svg width="116" height="116" viewBox="0 0 116 116" fill="none" xmlns="http://www.w3.org/2000/svg">
<g clip-path="url(#clip0_198_1038)">
<path d="M96.668 28.9993H82.168V19.3327C82.168 13.9677 77.8663 9.66602 72.5013 9.66602H43.5013C38.1363 9.66602 33.8346 13.9677 33.8346 19.3327V28.9993H19.3346C13.9696 28.9993 9.66797 33.301 9.66797 38.666V91.8327C9.66797 97.1977 13.9696 101.499 19.3346 101.499H96.668C102.033 101.499 106.335 97.1977 106.335 91.8327V38.666C106.335 33.301 102.033 28.9993 96.668 28.9993ZM43.5013 19.3327H72.5013V28.9993H43.5013V19.3327ZM96.668 91.8327H19.3346V82.166H96.668V91.8327ZM96.668 67.666H19.3346V38.666H33.8346V48.3327H43.5013V38.666H72.5013V48.3327H82.168V38.666H96.668V67.666Z" fill="#007BFF"/>
</g>
<defs>
<clipPath id="clip0_198_1038">
<rect width="116" height="116" fill="white"/>
</clipPath>
</defs>
</svg>
